<svg width="40" height="39" viewBox="0 0 40 39" fill="none" xmlns="http://www.w3.org/2000/svg">
<path fill-rule="evenodd" clip-rule="evenodd" d="M10.8447 34.6406C11.6887 34.6406 12.3747 35.3266 12.3747 36.1706C12.3747 37.0146 11.6887 37.6986 10.8447 37.6986C10.0007 37.6986 9.31665 37.0146 9.31665 36.1706C9.31665 35.3266 10.0007 34.6406 10.8447 34.6406Z" stroke="#008ECC" stroke-width="1.5" stroke-linecap="round" stroke-linejoin="round"/>
<path fill-rule="evenodd" clip-rule="evenodd" d="M33.3493 34.6406C34.1933 34.6406 34.8793 35.3266 34.8793 36.1706C34.8793 37.0146 34.1933 37.6986 33.3493 37.6986C32.5053 37.6986 31.8193 37.0146 31.8193 36.1706C31.8193 35.3266 32.5053 34.6406 33.3493 34.6406Z" stroke="#008ECC" stroke-width="1.5" stroke-linecap="round" stroke-linejoin="round"/>
<path d="M1.49976 1.5L5.65976 2.22L7.58576 25.166C7.74176 27.036 9.30376 28.472 11.1798 28.472H33.0038C34.7958 28.472 36.3158 27.156 36.5738 25.38L38.4718 12.264C38.7058 10.646 37.4518 9.198 35.8178 9.198H6.32776" stroke="#008ECC" stroke-width="1.5" stroke-linecap="round" stroke-linejoin="round"/>
<path d="M24.2507 16.59H29.7967" stroke="#008ECC" stroke-width="1.5" stroke-linecap="round" stroke-linejoin="round"/>
</svg>
