<svg width="212" height="48" viewBox="0 0 212 48" fill="none" xmlns="http://www.w3.org/2000/svg">
<path d="M32 14H16C12.6863 14 10 16.6863 10 20V38C10 41.3137 12.6863 44 16 44H32C35.3137 44 38 41.3137 38 38V20C38 16.6863 35.3137 14 32 14Z" fill="#05ABF3"/>
<path d="M18 14V12C18 8.68629 20.6863 6 24 6C27.3137 6 30 8.68629 30 12V14" stroke="#05ABF3" stroke-width="3" stroke-linecap="round"/>
<path d="M24 30C26.2091 30 28 28.2091 28 26C28 23.7909 26.2091 22 24 22C21.7909 22 20 23.7909 20 26C20 28.2091 21.7909 30 24 30Z" fill="white"/>
<path d="M24 27.5C24.8284 27.5 25.5 26.8284 25.5 26C25.5 25.1716 24.8284 24.5 24 24.5C23.1716 24.5 22.5 25.1716 22.5 26C22.5 26.8284 23.1716 27.5 24 27.5Z" fill="#05ABF3"/>
<path d="M56 24C56 12.9543 64.9543 4 76 4H192C203.046 4 212 12.9543 212 24C212 35.0457 203.046 44 192 44H76C64.9543 44 56 35.0457 56 24Z" fill="white"/>
<path d="M58.7107 9.81818H64.5147L72.2874 28.7898H72.5942L80.367 9.81818H86.1709V36H81.6198V18.0128H81.3769L74.1411 35.9233H70.7405L63.5047 17.9744H63.2618V36H58.7107V9.81818ZM90.6003 36V16.3636H95.2281V36H90.6003ZM92.927 13.5767C92.194 13.5767 91.5634 13.3338 91.035 12.848C90.5065 12.3537 90.2423 11.7614 90.2423 11.071C90.2423 10.3722 90.5065 9.77983 91.035 9.29403C91.5634 8.79971 92.194 8.55256 92.927 8.55256C93.6685 8.55256 94.2992 8.79971 94.819 9.29403C95.3475 9.77983 95.6117 10.3722 95.6117 11.071C95.6117 11.7614 95.3475 12.3537 94.819 12.848C94.2992 13.3338 93.6685 13.5767 92.927 13.5767ZM104.084 24.4943V36H99.4562V16.3636H103.879V19.7003H104.11C104.561 18.6009 105.281 17.7273 106.27 17.0795C107.267 16.4318 108.499 16.108 109.965 16.108C111.32 16.108 112.5 16.3977 113.506 16.9773C114.52 17.5568 115.304 18.3963 115.858 19.4957C116.421 20.5952 116.698 21.929 116.689 23.4972V36H112.061V24.2131C112.061 22.9006 111.72 21.8736 111.039 21.1321C110.365 20.3906 109.432 20.0199 108.239 20.0199C107.429 20.0199 106.709 20.1989 106.078 20.5568C105.456 20.9062 104.966 21.4134 104.608 22.0781C104.259 22.7429 104.084 23.5483 104.084 24.4943ZM120.863 36V16.3636H125.491V36H120.863ZM123.19 13.5767C122.457 13.5767 121.826 13.3338 121.297 12.848C120.769 12.3537 120.505 11.7614 120.505 11.071C120.505 10.3722 120.769 9.77983 121.297 9.29403C121.826 8.79971 122.457 8.55256 123.19 8.55256C123.931 8.55256 124.562 8.79971 125.082 9.29403C125.61 9.77983 125.874 10.3722 125.874 11.071C125.874 11.7614 125.61 12.3537 125.082 12.848C124.562 13.3338 123.931 13.5767 123.19 13.5767Z" fill="#05ABF3"/>
<path d="M145.075 21.554L140.856 22.0142C140.737 21.5881 140.528 21.1875 140.23 20.8125C139.94 20.4375 139.548 20.1349 139.054 19.9048C138.559 19.6747 137.954 19.5597 137.238 19.5597C136.275 19.5597 135.465 19.7685 134.809 20.1861C134.162 20.6037 133.842 21.1449 133.85 21.8097C133.842 22.3807 134.051 22.8452 134.477 23.2031C134.912 23.5611 135.627 23.8551 136.625 24.0852L139.974 24.8011C141.832 25.2017 143.213 25.8366 144.116 26.706C145.028 27.5753 145.488 28.7131 145.497 30.1193C145.488 31.3551 145.126 32.446 144.41 33.392C143.703 34.3295 142.718 35.0625 141.457 35.5909C140.196 36.1193 138.747 36.3835 137.11 36.3835C134.707 36.3835 132.772 35.8807 131.306 34.875C129.84 33.8608 128.967 32.4503 128.686 30.6435L133.198 30.2088C133.403 31.0952 133.838 31.7642 134.502 32.2159C135.167 32.6676 136.032 32.8935 137.098 32.8935C138.197 32.8935 139.079 32.6676 139.744 32.2159C140.417 31.7642 140.754 31.206 140.754 30.5412C140.754 29.9787 140.537 29.5142 140.102 29.1477C139.676 28.7812 139.011 28.5 138.108 28.304L134.758 27.6009C132.875 27.2088 131.481 26.5483 130.578 25.6193C129.674 24.6818 129.227 23.4972 129.235 22.0653C129.227 20.8551 129.555 19.8068 130.22 18.9205C130.893 18.0256 131.826 17.3352 133.019 16.8494C134.221 16.3551 135.606 16.108 137.174 16.108C139.475 16.108 141.287 16.598 142.608 17.5781C143.937 18.5582 144.76 19.8835 145.075 21.554ZM153.41 24.4943V36H148.782V9.81818H153.308V19.7003H153.538C153.998 18.5923 154.709 17.7187 155.673 17.0795C156.644 16.4318 157.88 16.108 159.38 16.108C160.744 16.108 161.933 16.3935 162.947 16.9645C163.961 17.5355 164.745 18.3707 165.299 19.4702C165.861 20.5696 166.143 21.9119 166.143 23.4972V36H161.515V24.2131C161.515 22.892 161.174 21.8651 160.492 21.1321C159.819 20.3906 158.873 20.0199 157.654 20.0199C156.836 20.0199 156.103 20.1989 155.455 20.5568C154.816 20.9062 154.313 21.4134 153.947 22.0781C153.589 22.7429 153.41 23.5483 153.41 24.4943ZM178.895 36.3835C176.977 36.3835 175.315 35.9616 173.909 35.1179C172.503 34.2741 171.412 33.0937 170.636 31.5767C169.869 30.0597 169.485 28.2869 169.485 26.2585C169.485 24.2301 169.869 22.4531 170.636 20.9276C171.412 19.402 172.503 18.2173 173.909 17.3736C175.315 16.5298 176.977 16.108 178.895 16.108C180.812 16.108 182.474 16.5298 183.88 17.3736C185.287 18.2173 186.373 19.402 187.14 20.9276C187.916 22.4531 188.304 24.2301 188.304 26.2585C188.304 28.2869 187.916 30.0597 187.14 31.5767C186.373 33.0937 185.287 34.2741 183.88 35.1179C182.474 35.9616 180.812 36.3835 178.895 36.3835ZM178.92 32.6761C179.96 32.6761 180.829 32.3906 181.528 31.8196C182.227 31.2401 182.747 30.4645 183.088 29.4929C183.437 28.5213 183.612 27.4389 183.612 26.2457C183.612 25.044 183.437 23.9574 183.088 22.9858C182.747 22.0057 182.227 21.2259 181.528 20.6463C180.829 20.0668 179.96 19.777 178.92 19.777C177.855 19.777 176.968 20.0668 176.261 20.6463C175.562 21.2259 175.038 22.0057 174.689 22.9858C174.348 23.9574 174.177 25.044 174.177 26.2457C174.177 27.4389 174.348 28.5213 174.689 29.4929C175.038 30.4645 175.562 31.2401 176.261 31.8196C176.968 32.3906 177.855 32.6761 178.92 32.6761ZM191.701 43.3636V16.3636H196.252V19.6108H196.52C196.759 19.1335 197.096 18.6264 197.53 18.0895C197.965 17.544 198.553 17.0795 199.294 16.696C200.036 16.304 200.982 16.108 202.133 16.108C203.65 16.108 205.017 16.4957 206.236 17.2713C207.463 18.0384 208.435 19.1761 209.151 20.6847C209.875 22.1847 210.238 24.0256 210.238 26.2074C210.238 28.3636 209.884 30.196 209.177 31.7045C208.469 33.2131 207.506 34.3636 206.287 35.1562C205.069 35.9489 203.688 36.3452 202.145 36.3452C201.02 36.3452 200.087 36.1577 199.346 35.7827C198.604 35.4077 198.008 34.956 197.556 34.4276C197.113 33.8906 196.767 33.3835 196.52 32.9062H196.329V43.3636H191.701ZM196.239 26.1818C196.239 27.4517 196.418 28.5639 196.776 29.5185C197.142 30.473 197.667 31.2187 198.348 31.7557C199.039 32.2841 199.874 32.5483 200.854 32.5483C201.877 32.5483 202.733 32.2756 203.424 31.7301C204.114 31.1761 204.634 30.4219 204.983 29.4673C205.341 28.5043 205.52 27.4091 205.52 26.1818C205.52 24.9631 205.346 23.8807 204.996 22.9347C204.647 21.9886 204.127 21.2472 203.436 20.7102C202.746 20.1733 201.885 19.9048 200.854 19.9048C199.865 19.9048 199.026 20.1648 198.336 20.6847C197.645 21.2045 197.121 21.9332 196.763 22.8707C196.414 23.8082 196.239 24.9119 196.239 26.1818Z" fill="#101828"/>
</svg>
