<svg width="171" height="216" viewBox="0 0 171 216" fill="none" xmlns="http://www.w3.org/2000/svg">
<g clip-path="url(#clip0_1_1422)">
<path d="M170.38 0.480011H0.97998V214.91H170.38V0.480011Z" fill="white" stroke="#BABABA" stroke-width="0.95" stroke-miterlimit="10"/>
<path d="M106.16 72.17C97.7899 72.17 89.27 71.83 81.2999 69.61C73.4799 67.44 66.2999 63.23 59.8999 58.36C55.7099 55.19 51.8999 52.67 46.4599 53.05C41.1369 53.3331 36.0462 55.321 31.9399 58.72C25.0199 64.78 26.0599 76 28.8299 83.87C32.9899 95.74 45.6499 104 56.4099 109.36C68.84 115.57 82.5 119.17 96.1899 121.25C108.19 123.07 123.61 124.4 134.01 116.56C143.56 109.36 146.18 92.92 143.84 81.82C143.273 78.5379 141.527 75.5758 138.93 73.49C132.22 68.59 122.21 71.86 114.67 72.03C111.87 72.09 109.02 72.15 106.16 72.17Z" fill="#F2F2F2"/>
<path d="M85.68 140.7C105.954 140.7 122.39 139.675 122.39 138.41C122.39 137.145 105.954 136.12 85.68 136.12C65.4056 136.12 48.97 137.145 48.97 138.41C48.97 139.675 65.4056 140.7 85.68 140.7Z" fill="#F2F2F2"/>
<path d="M131.49 40.98C132.031 40.98 132.47 40.5412 132.47 40C132.47 39.4587 132.031 39.02 131.49 39.02C130.949 39.02 130.51 39.4587 130.51 40C130.51 40.5412 130.949 40.98 131.49 40.98Z" fill="#CFCFCF"/>
<path d="M66.3001 32.77C66.8413 32.77 67.2801 32.3312 67.2801 31.79C67.2801 31.2488 66.8413 30.81 66.3001 30.81C65.7588 30.81 65.3201 31.2488 65.3201 31.79C65.3201 32.3312 65.7588 32.77 66.3001 32.77Z" fill="#CFCFCF"/>
<path d="M78.1499 126.08C78.6912 126.08 79.1299 125.641 79.1299 125.1C79.1299 124.559 78.6912 124.12 78.1499 124.12C77.6087 124.12 77.1699 124.559 77.1699 125.1C77.1699 125.641 77.6087 126.08 78.1499 126.08Z" fill="#CFCFCF"/>
<path d="M104.31 28.11V32.41" stroke="#BABABA" stroke-linecap="round" stroke-linejoin="round"/>
<path d="M102.16 30.26H106.46" stroke="#BABABA" stroke-linecap="round" stroke-linejoin="round"/>
<path d="M34.25 46.21V50.51" stroke="#BABABA" stroke-linecap="round" stroke-linejoin="round"/>
<path d="M32.0901 48.36H36.4001" stroke="#BABABA" stroke-linecap="round" stroke-linejoin="round"/>
<path d="M37.49 106.12V110.43" stroke="#BABABA" stroke-linecap="round" stroke-linejoin="round"/>
<path d="M35.3301 108.27H39.6401" stroke="#BABABA" stroke-linecap="round" stroke-linejoin="round"/>
<path d="M126.34 62.03V66.33" stroke="#BABABA" stroke-linecap="round" stroke-linejoin="round"/>
<path d="M124.19 64.18H128.49" stroke="#BABABA" stroke-linecap="round" stroke-linejoin="round"/>
<path d="M96.3694 36.9425L46.1764 43.5335C42.9232 43.9607 40.6322 46.9443 41.0594 50.1975L48.7099 108.459C49.1371 111.712 52.1207 114.003 55.3739 113.576L105.567 106.985C108.82 106.558 111.111 103.574 110.684 100.321L103.033 42.0595C102.606 38.8063 99.6226 36.5153 96.3694 36.9425Z" fill="#D2D2D2"/>
<path d="M110.99 45.49H60.2901C57.004 45.49 54.3401 48.1539 54.3401 51.44V110.29C54.3401 113.576 57.004 116.24 60.2901 116.24H110.99C114.276 116.24 116.94 113.576 116.94 110.29V51.44C116.94 48.1539 114.276 45.49 110.99 45.49Z" fill="white" stroke="#BABABA" stroke-linecap="round" stroke-linejoin="round"/>
<path d="M61.9099 92.05L72.0499 75.52C72.1497 75.2785 72.3189 75.0721 72.536 74.9268C72.7532 74.7815 73.0086 74.704 73.2699 74.704C73.5312 74.704 73.7866 74.7815 74.0038 74.9268C74.221 75.0721 74.3902 75.2785 74.4899 75.52L80.2399 84.89C80.3376 85.1323 80.5054 85.3398 80.7219 85.486C80.9384 85.6321 81.1937 85.7102 81.4549 85.7102C81.7161 85.7102 81.9714 85.6321 82.1879 85.486C82.4044 85.3398 82.5722 85.1323 82.6699 84.89L92.5099 68.89C92.6076 68.6477 92.7754 68.4402 92.9919 68.294C93.2084 68.1479 93.4637 68.0698 93.7249 68.0698C93.9861 68.0698 94.2414 68.1479 94.4579 68.294C94.6744 68.4402 94.8423 68.6477 94.9399 68.89L109.38 92.42L61.9099 92.05Z" fill="white" stroke="#BABABA" stroke-linecap="round" stroke-linejoin="round"/>
<path d="M82.1299 73.3C83.8917 73.3 85.3199 71.8718 85.3199 70.11C85.3199 68.3482 83.8917 66.92 82.1299 66.92C80.3681 66.92 78.9399 68.3482 78.9399 70.11C78.9399 71.8718 80.3681 73.3 82.1299 73.3Z" fill="white" stroke="#BABABA" stroke-linecap="round" stroke-linejoin="round"/>
<path d="M70.37 160.32V167.55H69.68C69.5733 167.55 69.4833 167.533 69.41 167.5C69.34 167.463 69.2716 167.403 69.205 167.32L65.43 162.5C65.45 162.72 65.46 162.923 65.46 163.11V167.55H64.275V160.32H64.98C65.0366 160.32 65.085 160.323 65.125 160.33C65.1683 160.333 65.205 160.343 65.235 160.36C65.2683 160.373 65.3 160.395 65.33 160.425C65.36 160.452 65.3933 160.488 65.43 160.535L69.22 165.375C69.21 165.258 69.2016 165.143 69.195 165.03C69.1883 164.917 69.185 164.812 69.185 164.715V160.32H70.37ZM73.8988 162.34C74.2788 162.34 74.6238 162.402 74.9338 162.525C75.2471 162.648 75.5138 162.823 75.7338 163.05C75.9571 163.277 76.1288 163.553 76.2488 163.88C76.3688 164.207 76.4288 164.572 76.4288 164.975C76.4288 165.382 76.3688 165.748 76.2488 166.075C76.1288 166.402 75.9571 166.68 75.7338 166.91C75.5138 167.14 75.2471 167.317 74.9338 167.44C74.6238 167.563 74.2788 167.625 73.8988 167.625C73.5155 167.625 73.1671 167.563 72.8538 167.44C72.5405 167.317 72.2721 167.14 72.0488 166.91C71.8288 166.68 71.6571 166.402 71.5338 166.075C71.4138 165.748 71.3538 165.382 71.3538 164.975C71.3538 164.572 71.4138 164.207 71.5338 163.88C71.6571 163.553 71.8288 163.277 72.0488 163.05C72.2721 162.823 72.5405 162.648 72.8538 162.525C73.1671 162.402 73.5155 162.34 73.8988 162.34ZM73.8988 166.675C74.3255 166.675 74.6405 166.532 74.8438 166.245C75.0505 165.958 75.1538 165.538 75.1538 164.985C75.1538 164.432 75.0505 164.01 74.8438 163.72C74.6405 163.43 74.3255 163.285 73.8988 163.285C73.4655 163.285 73.1438 163.432 72.9338 163.725C72.7271 164.015 72.6238 164.435 72.6238 164.985C72.6238 165.535 72.7271 165.955 72.9338 166.245C73.1438 166.532 73.4655 166.675 73.8988 166.675ZM81.3476 167.55H79.9976V160.32H81.3476V167.55ZM82.6933 167.55V162.42H83.4483C83.6083 162.42 83.7133 162.495 83.7633 162.645L83.8433 163.025C83.9333 162.925 84.0266 162.833 84.1233 162.75C84.2233 162.667 84.3283 162.595 84.4383 162.535C84.5516 162.475 84.6716 162.428 84.7983 162.395C84.9283 162.358 85.0699 162.34 85.2233 162.34C85.5466 162.34 85.8116 162.428 86.0183 162.605C86.2283 162.778 86.3849 163.01 86.4883 163.3C86.5683 163.13 86.6683 162.985 86.7883 162.865C86.9083 162.742 87.0399 162.642 87.1833 162.565C87.3266 162.488 87.4783 162.432 87.6383 162.395C87.8016 162.358 87.9649 162.34 88.1283 162.34C88.4116 162.34 88.6633 162.383 88.8833 162.47C89.1033 162.557 89.2883 162.683 89.4383 162.85C89.5883 163.017 89.7016 163.22 89.7783 163.46C89.8583 163.7 89.8983 163.975 89.8983 164.285V167.55H88.6633V164.285C88.6633 163.958 88.5916 163.713 88.4483 163.55C88.3049 163.383 88.0949 163.3 87.8183 163.3C87.6916 163.3 87.5733 163.322 87.4633 163.365C87.3566 163.408 87.2616 163.472 87.1783 163.555C87.0983 163.635 87.0349 163.737 86.9883 163.86C86.9416 163.983 86.9183 164.125 86.9183 164.285V167.55H85.6783V164.285C85.6783 163.942 85.6083 163.692 85.4683 163.535C85.3316 163.378 85.1299 163.3 84.8633 163.3C84.6833 163.3 84.5149 163.345 84.3583 163.435C84.2049 163.522 84.0616 163.642 83.9283 163.795V167.55H82.6933ZM93.7822 165.36C93.4255 165.377 93.1255 165.408 92.8822 165.455C92.6388 165.498 92.4438 165.555 92.2972 165.625C92.1505 165.695 92.0455 165.777 91.9822 165.87C91.9188 165.963 91.8872 166.065 91.8872 166.175C91.8872 166.392 91.9505 166.547 92.0772 166.64C92.2072 166.733 92.3755 166.78 92.5822 166.78C92.8355 166.78 93.0538 166.735 93.2372 166.645C93.4238 166.552 93.6055 166.412 93.7822 166.225V165.36ZM90.9522 163.135C91.5422 162.595 92.2522 162.325 93.0822 162.325C93.3822 162.325 93.6505 162.375 93.8872 162.475C94.1238 162.572 94.3238 162.708 94.4872 162.885C94.6505 163.058 94.7738 163.267 94.8572 163.51C94.9438 163.753 94.9872 164.02 94.9872 164.31V167.55H94.4272C94.3105 167.55 94.2205 167.533 94.1572 167.5C94.0938 167.463 94.0438 167.392 94.0072 167.285L93.8972 166.915C93.7672 167.032 93.6405 167.135 93.5172 167.225C93.3938 167.312 93.2655 167.385 93.1322 167.445C92.9988 167.505 92.8555 167.55 92.7022 167.58C92.5522 167.613 92.3855 167.63 92.2022 167.63C91.9855 167.63 91.7855 167.602 91.6022 167.545C91.4188 167.485 91.2605 167.397 91.1272 167.28C90.9938 167.163 90.8905 167.018 90.8172 166.845C90.7438 166.672 90.7072 166.47 90.7072 166.24C90.7072 166.11 90.7288 165.982 90.7722 165.855C90.8155 165.725 90.8855 165.602 90.9822 165.485C91.0822 165.368 91.2105 165.258 91.3672 165.155C91.5238 165.052 91.7155 164.962 91.9422 164.885C92.1722 164.808 92.4388 164.747 92.7422 164.7C93.0455 164.65 93.3922 164.62 93.7822 164.61V164.31C93.7822 163.967 93.7088 163.713 93.5622 163.55C93.4155 163.383 93.2038 163.3 92.9272 163.3C92.7272 163.3 92.5605 163.323 92.4272 163.37C92.2972 163.417 92.1822 163.47 92.0822 163.53C91.9822 163.587 91.8905 163.638 91.8072 163.685C91.7272 163.732 91.6372 163.755 91.5372 163.755C91.4505 163.755 91.3772 163.733 91.3172 163.69C91.2572 163.643 91.2088 163.59 91.1722 163.53L90.9522 163.135ZM98.0253 164.86C98.1786 164.86 98.312 164.84 98.4253 164.8C98.5386 164.757 98.6319 164.698 98.7053 164.625C98.7819 164.552 98.8386 164.463 98.8753 164.36C98.9153 164.257 98.9353 164.143 98.9353 164.02C98.9353 163.767 98.8586 163.567 98.7053 163.42C98.5553 163.27 98.3286 163.195 98.0253 163.195C97.7219 163.195 97.4936 163.27 97.3403 163.42C97.1903 163.567 97.1153 163.767 97.1153 164.02C97.1153 164.14 97.1336 164.252 97.1703 164.355C97.2103 164.458 97.2669 164.548 97.3403 164.625C97.4169 164.698 97.5119 164.757 97.6253 164.8C97.7419 164.84 97.8753 164.86 98.0253 164.86ZM99.4203 167.78C99.4203 167.68 99.3903 167.598 99.3303 167.535C99.2703 167.472 99.1886 167.423 99.0853 167.39C98.982 167.353 98.8603 167.327 98.7203 167.31C98.5836 167.293 98.437 167.282 98.2803 167.275C98.127 167.265 97.967 167.257 97.8003 167.25C97.6369 167.243 97.4769 167.23 97.3203 167.21C97.1836 167.287 97.0719 167.377 96.9853 167.48C96.9019 167.583 96.8603 167.703 96.8603 167.84C96.8603 167.93 96.8819 168.013 96.9253 168.09C96.9719 168.17 97.0436 168.238 97.1403 168.295C97.2403 168.352 97.3686 168.395 97.5253 168.425C97.682 168.458 97.8736 168.475 98.1003 168.475C98.3303 168.475 98.5286 168.457 98.6953 168.42C98.862 168.387 98.9986 168.338 99.1053 168.275C99.2153 168.215 99.2953 168.142 99.3453 168.055C99.3953 167.972 99.4203 167.88 99.4203 167.78ZM100.65 162.595V163.055C100.65 163.202 100.562 163.292 100.385 163.325L99.9253 163.41C99.9953 163.587 100.03 163.78 100.03 163.99C100.03 164.243 99.9786 164.473 99.8753 164.68C99.7753 164.883 99.6353 165.057 99.4553 165.2C99.2753 165.343 99.062 165.455 98.8153 165.535C98.5719 165.612 98.3086 165.65 98.0253 165.65C97.9253 165.65 97.8286 165.645 97.7353 165.635C97.6419 165.625 97.5503 165.612 97.4603 165.595C97.3003 165.692 97.2203 165.8 97.2203 165.92C97.2203 166.023 97.2669 166.1 97.3603 166.15C97.4569 166.197 97.5836 166.23 97.7403 166.25C97.8969 166.27 98.0753 166.283 98.2753 166.29C98.4753 166.293 98.6803 166.303 98.8903 166.32C99.1003 166.337 99.3053 166.367 99.5053 166.41C99.7053 166.45 99.8836 166.515 100.04 166.605C100.197 166.695 100.322 166.818 100.415 166.975C100.512 167.128 100.56 167.327 100.56 167.57C100.56 167.797 100.504 168.017 100.39 168.23C100.28 168.443 100.119 168.633 99.9053 168.8C99.6953 168.967 99.4353 169.1 99.1253 169.2C98.8186 169.303 98.4686 169.355 98.0753 169.355C97.6886 169.355 97.3519 169.317 97.0653 169.24C96.7786 169.167 96.5403 169.067 96.3503 168.94C96.1603 168.817 96.0186 168.673 95.9253 168.51C95.8319 168.347 95.7853 168.177 95.7853 168C95.7853 167.76 95.8569 167.56 96.0003 167.4C96.1469 167.237 96.3469 167.107 96.6003 167.01C96.4636 166.94 96.3553 166.847 96.2753 166.73C96.1953 166.613 96.1553 166.46 96.1553 166.27C96.1553 166.193 96.1686 166.115 96.1953 166.035C96.2253 165.952 96.2669 165.87 96.3203 165.79C96.3769 165.71 96.4469 165.635 96.5303 165.565C96.6136 165.492 96.7119 165.427 96.8253 165.37C96.5653 165.23 96.3603 165.043 96.2103 164.81C96.0636 164.577 95.9903 164.303 95.9903 163.99C95.9903 163.737 96.0403 163.508 96.1403 163.305C96.2436 163.098 96.3853 162.923 96.5653 162.78C96.7486 162.633 96.9636 162.522 97.2103 162.445C97.4603 162.368 97.7319 162.33 98.0253 162.33C98.2453 162.33 98.452 162.353 98.6453 162.4C98.8386 162.443 99.0153 162.508 99.1753 162.595H100.65ZM104.651 164.395C104.651 164.235 104.627 164.085 104.581 163.945C104.537 163.802 104.471 163.677 104.381 163.57C104.291 163.463 104.176 163.38 104.036 163.32C103.899 163.257 103.739 163.225 103.556 163.225C103.199 163.225 102.917 163.327 102.711 163.53C102.507 163.733 102.377 164.022 102.321 164.395H104.651ZM102.296 165.14C102.316 165.403 102.362 165.632 102.436 165.825C102.509 166.015 102.606 166.173 102.726 166.3C102.846 166.423 102.987 166.517 103.151 166.58C103.317 166.64 103.501 166.67 103.701 166.67C103.901 166.67 104.072 166.647 104.216 166.6C104.362 166.553 104.489 166.502 104.596 166.445C104.706 166.388 104.801 166.337 104.881 166.29C104.964 166.243 105.044 166.22 105.121 166.22C105.224 166.22 105.301 166.258 105.351 166.335L105.706 166.785C105.569 166.945 105.416 167.08 105.246 167.19C105.076 167.297 104.897 167.383 104.711 167.45C104.527 167.513 104.339 167.558 104.146 167.585C103.956 167.612 103.771 167.625 103.591 167.625C103.234 167.625 102.902 167.567 102.596 167.45C102.289 167.33 102.022 167.155 101.796 166.925C101.569 166.692 101.391 166.405 101.261 166.065C101.131 165.722 101.066 165.325 101.066 164.875C101.066 164.525 101.122 164.197 101.236 163.89C101.349 163.58 101.511 163.312 101.721 163.085C101.934 162.855 102.192 162.673 102.496 162.54C102.802 162.407 103.147 162.34 103.531 162.34C103.854 162.34 104.152 162.392 104.426 162.495C104.699 162.598 104.934 162.75 105.131 162.95C105.327 163.147 105.481 163.39 105.591 163.68C105.704 163.967 105.761 164.295 105.761 164.665C105.761 164.852 105.741 164.978 105.701 165.045C105.661 165.108 105.584 165.14 105.471 165.14H102.296Z" fill="#939090"/>
</g>
<defs>
<clipPath id="clip0_1_1422">
<rect width="170.35" height="215.38" fill="white" transform="translate(0.5)"/>
</clipPath>
</defs>
</svg>
